<mxfile host="app.diagrams.net" agent="Mozilla/5.0 (Windows NT 10.0; Win64; x64) AppleWebKit/537.36 (KHTML, like Gecko) Chrome/131.0.0.0 Safari/537.36" version="28.2.5">
  <diagram name="Page-1" id="52a04d89-c75d-2922-d76d-85b35f80e030">
    <mxGraphModel dx="1141" dy="628" grid="1" gridSize="10" guides="1" tooltips="1" connect="1" arrows="1" fold="1" page="1" pageScale="1" pageWidth="1100" pageHeight="850" background="none" math="0" shadow="0">
      <root>
        <mxCell id="0" />
        <mxCell id="1" parent="0" />
        <mxCell id="21ea969265ad0168-30" value="1C Торговля и склад" style="html=1;rounded=0;shadow=0;comic=0;labelBackgroundColor=none;strokeWidth=2;fontFamily=Verdana;fontSize=12;align=center;shape=mxgraph.ios7ui.horLines;" parent="1" vertex="1">
          <mxGeometry x="336.25" y="202" width="202.5" height="50" as="geometry" />
        </mxCell>
        <mxCell id="17472293e6e8944d-29" value="Сотрудник склада" style="whiteSpace=wrap;html=1;rounded=0;shadow=0;comic=0;labelBackgroundColor=none;strokeWidth=1;fontFamily=Verdana;fontSize=12;align=center;" parent="1" vertex="1">
          <mxGeometry x="665" y="79" width="150" height="50" as="geometry" />
        </mxCell>
        <mxCell id="1fdf3b25b50cf41e-27" style="edgeStyle=none;html=1;labelBackgroundColor=none;startFill=0;startSize=8;endFill=1;endSize=8;fontFamily=Verdana;fontSize=12;exitX=1;exitY=0.5;exitDx=0;exitDy=0;" parent="1" source="17472293e6e8944d-30" target="1fdf3b25b50cf41e-1" edge="1">
          <mxGeometry relative="1" as="geometry">
            <mxPoint x="250" y="160" as="sourcePoint" />
            <mxPoint x="340" y="104" as="targetPoint" />
          </mxGeometry>
        </mxCell>
        <mxCell id="wmSecnhCIObgYq9AWwNq-1" value="Необходимые товары" style="edgeLabel;html=1;align=center;verticalAlign=middle;resizable=0;points=[];" parent="1fdf3b25b50cf41e-27" vertex="1" connectable="0">
          <mxGeometry x="0.216" y="2" relative="1" as="geometry">
            <mxPoint x="-26" y="2" as="offset" />
          </mxGeometry>
        </mxCell>
        <mxCell id="17472293e6e8944d-30" value="Врач" style="whiteSpace=wrap;html=1;rounded=0;shadow=0;comic=0;labelBackgroundColor=none;strokeWidth=1;fontFamily=Verdana;fontSize=12;align=center;" parent="1" vertex="1">
          <mxGeometry x="60" y="79" width="140" height="50" as="geometry" />
        </mxCell>
        <mxCell id="1fdf3b25b50cf41e-28" style="edgeStyle=orthogonalEdgeStyle;html=1;labelBackgroundColor=none;startFill=0;startSize=8;endFill=1;endSize=8;fontFamily=Verdana;fontSize=12;entryX=0;entryY=0.5;entryDx=0;entryDy=0;" parent="1" source="1fdf3b25b50cf41e-1" target="17472293e6e8944d-29" edge="1">
          <mxGeometry relative="1" as="geometry">
            <mxPoint x="580" y="70" as="targetPoint" />
          </mxGeometry>
        </mxCell>
        <mxCell id="N2F6Gm5FqlaRkCu7jFQK-1" value="Учет ТМЦ" style="edgeLabel;html=1;align=center;verticalAlign=middle;resizable=0;points=[];" vertex="1" connectable="0" parent="1fdf3b25b50cf41e-28">
          <mxGeometry x="0.1792" y="-1" relative="1" as="geometry">
            <mxPoint x="-10" y="-1" as="offset" />
          </mxGeometry>
        </mxCell>
        <mxCell id="1fdf3b25b50cf41e-1" value="1.1" style="swimlane;html=1;fontStyle=0;childLayout=stackLayout;horizontal=1;startSize=26;fillColor=#e0e0e0;horizontalStack=0;resizeParent=1;resizeLast=0;collapsible=1;marginBottom=0;swimlaneFillColor=#ffffff;align=center;rounded=1;shadow=0;comic=0;labelBackgroundColor=none;strokeWidth=1;fontFamily=Verdana;fontSize=12" parent="1" vertex="1">
          <mxGeometry x="357.5" y="68.5" width="160" height="71" as="geometry">
            <mxRectangle x="430" y="54" width="60" height="30" as="alternateBounds" />
          </mxGeometry>
        </mxCell>
        <mxCell id="1fdf3b25b50cf41e-2" value="Собирает информацию о закупках" style="text;html=1;strokeColor=none;fillColor=none;spacingLeft=4;spacingRight=4;whiteSpace=wrap;overflow=hidden;rotatable=0;points=[[0,0.5],[1,0.5]];portConstraint=eastwest;align=center;" parent="1fdf3b25b50cf41e-1" vertex="1">
          <mxGeometry y="26" width="160" height="44" as="geometry" />
        </mxCell>
        <mxCell id="wmSecnhCIObgYq9AWwNq-4" value="1.2" style="swimlane;html=1;fontStyle=0;childLayout=stackLayout;horizontal=1;startSize=26;fillColor=#e0e0e0;horizontalStack=0;resizeParent=1;resizeLast=0;collapsible=1;marginBottom=0;swimlaneFillColor=#ffffff;align=center;rounded=1;shadow=0;comic=0;labelBackgroundColor=none;strokeWidth=1;fontFamily=Verdana;fontSize=12" parent="1" vertex="1">
          <mxGeometry x="660" y="200" width="160" height="52" as="geometry" />
        </mxCell>
        <mxCell id="wmSecnhCIObgYq9AWwNq-5" value="Фиксация товаров" style="text;html=1;strokeColor=none;fillColor=none;spacingLeft=4;spacingRight=4;whiteSpace=wrap;overflow=hidden;rotatable=0;points=[[0,0.5],[1,0.5]];portConstraint=eastwest;align=center;" parent="wmSecnhCIObgYq9AWwNq-4" vertex="1">
          <mxGeometry y="26" width="160" height="26" as="geometry" />
        </mxCell>
        <mxCell id="OZ1mrOEwCeZuRY0RDKlx-2" style="html=1;labelBackgroundColor=none;startFill=0;startSize=8;endFill=1;endSize=8;fontFamily=Verdana;fontSize=12;edgeStyle=orthogonalEdgeStyle;" parent="1" source="wmSecnhCIObgYq9AWwNq-4" target="21ea969265ad0168-30" edge="1">
          <mxGeometry relative="1" as="geometry">
            <mxPoint x="585" y="199" as="sourcePoint" />
            <mxPoint x="497.5" y="213.5" as="targetPoint" />
          </mxGeometry>
        </mxCell>
        <mxCell id="OZ1mrOEwCeZuRY0RDKlx-3" value="Сохранение" style="edgeLabel;html=1;align=center;verticalAlign=middle;resizable=0;points=[];" parent="OZ1mrOEwCeZuRY0RDKlx-2" vertex="1" connectable="0">
          <mxGeometry x="-0.0505" y="-3" relative="1" as="geometry">
            <mxPoint x="-5" y="3" as="offset" />
          </mxGeometry>
        </mxCell>
        <mxCell id="OZ1mrOEwCeZuRY0RDKlx-4" style="html=1;labelBackgroundColor=none;startFill=0;startSize=8;endFill=1;endSize=8;fontFamily=Verdana;fontSize=12;exitX=0.5;exitY=1;exitDx=0;exitDy=0;edgeStyle=orthogonalEdgeStyle;entryX=0.5;entryY=0;entryDx=0;entryDy=0;" parent="1" source="17472293e6e8944d-29" target="wmSecnhCIObgYq9AWwNq-4" edge="1">
          <mxGeometry relative="1" as="geometry">
            <mxPoint x="865" y="220" as="sourcePoint" />
            <mxPoint x="825" y="240" as="targetPoint" />
          </mxGeometry>
        </mxCell>
        <mxCell id="OZ1mrOEwCeZuRY0RDKlx-5" value="Список товаров" style="edgeLabel;html=1;align=center;verticalAlign=middle;resizable=0;points=[];" parent="OZ1mrOEwCeZuRY0RDKlx-4" vertex="1" connectable="0">
          <mxGeometry x="-0.0505" y="-3" relative="1" as="geometry">
            <mxPoint x="3" y="-5" as="offset" />
          </mxGeometry>
        </mxCell>
        <mxCell id="N2F6Gm5FqlaRkCu7jFQK-2" value="1C Бухгалтерия предприятия" style="html=1;rounded=0;shadow=0;comic=0;labelBackgroundColor=none;strokeWidth=2;fontFamily=Verdana;fontSize=12;align=center;shape=mxgraph.ios7ui.horLines;" vertex="1" parent="1">
          <mxGeometry x="336.25" y="330" width="202.5" height="50" as="geometry" />
        </mxCell>
        <mxCell id="N2F6Gm5FqlaRkCu7jFQK-3" style="html=1;labelBackgroundColor=none;startFill=0;startSize=8;endFill=1;endSize=8;fontFamily=Verdana;fontSize=12;edgeStyle=orthogonalEdgeStyle;entryX=0.247;entryY=0;entryDx=0;entryDy=0;entryPerimeter=0;exitX=0.246;exitY=1;exitDx=0;exitDy=0;exitPerimeter=0;" edge="1" parent="1" source="21ea969265ad0168-30" target="N2F6Gm5FqlaRkCu7jFQK-2">
          <mxGeometry relative="1" as="geometry">
            <mxPoint x="766" y="220" as="sourcePoint" />
            <mxPoint x="640" y="221" as="targetPoint" />
          </mxGeometry>
        </mxCell>
        <mxCell id="N2F6Gm5FqlaRkCu7jFQK-4" value="Обмен" style="edgeLabel;html=1;align=center;verticalAlign=middle;resizable=0;points=[];" vertex="1" connectable="0" parent="N2F6Gm5FqlaRkCu7jFQK-3">
          <mxGeometry x="-0.0505" y="-3" relative="1" as="geometry">
            <mxPoint x="7" y="1" as="offset" />
          </mxGeometry>
        </mxCell>
        <mxCell id="N2F6Gm5FqlaRkCu7jFQK-5" style="html=1;labelBackgroundColor=none;startFill=0;startSize=8;endFill=1;endSize=8;fontFamily=Verdana;fontSize=12;edgeStyle=orthogonalEdgeStyle;entryX=0.752;entryY=0.997;entryDx=0;entryDy=0;entryPerimeter=0;exitX=0.752;exitY=-0.004;exitDx=0;exitDy=0;exitPerimeter=0;" edge="1" parent="1" source="N2F6Gm5FqlaRkCu7jFQK-2" target="21ea969265ad0168-30">
          <mxGeometry relative="1" as="geometry">
            <mxPoint x="380" y="320" as="sourcePoint" />
            <mxPoint x="380" y="398" as="targetPoint" />
          </mxGeometry>
        </mxCell>
        <mxCell id="N2F6Gm5FqlaRkCu7jFQK-6" value="Обмен" style="edgeLabel;html=1;align=center;verticalAlign=middle;resizable=0;points=[];" vertex="1" connectable="0" parent="N2F6Gm5FqlaRkCu7jFQK-5">
          <mxGeometry x="-0.0505" y="-3" relative="1" as="geometry">
            <mxPoint x="-2" y="-3" as="offset" />
          </mxGeometry>
        </mxCell>
      </root>
    </mxGraphModel>
  </diagram>
</mxfile>
